<svg width="1200" height="360" viewBox="0 0 1200 360" fill="none" xmlns="http://www.w3.org/2000/svg" role="img" aria-labelledby="title desc">
  <title id="title">ExpertWiki banner</title>
  <desc id="desc">Source-backed expert knowledge cards for AI agents</desc>
  <rect width="1200" height="360" rx="28" fill="#0B1220"/>
  <rect x="1" y="1" width="1198" height="358" rx="27" stroke="#263246" stroke-width="2"/>
  <path d="M0 278C138 236 273 236 405 272C538 308 662 322 802 286C946 249 1066 247 1200 282V360H0V278Z" fill="#132238"/>
  <path d="M0 306C151 269 296 274 432 302C566 329 691 333 822 303C966 270 1077 272 1200 303V360H0V306Z" fill="#172A3A"/>

  <text x="76" y="88" fill="#F8FAFC" font-family="Inter, ui-sans-serif, system-ui, -apple-system, BlinkMacSystemFont, Segoe UI, sans-serif" font-size="48" font-weight="800">ExpertWiki</text>
  <text x="78" y="126" fill="#93C5FD" font-family="Inter, ui-sans-serif, system-ui, -apple-system, BlinkMacSystemFont, Segoe UI, sans-serif" font-size="22" font-weight="600">Source-backed professional knowledge infrastructure for AI agents</text>
  <text x="78" y="158" fill="#CBD5E1" font-family="Inter, ui-sans-serif, system-ui, -apple-system, BlinkMacSystemFont, Segoe UI, sans-serif" font-size="17">Preserve evidence, write auditable expert cards, and expose local retrieval surfaces.</text>

  <rect x="912" y="62" width="210" height="38" rx="19" fill="#1D4ED8"/>
  <text x="947" y="87" fill="#EFF6FF" font-family="Inter, ui-sans-serif, system-ui, -apple-system, BlinkMacSystemFont, Segoe UI, sans-serif" font-size="16" font-weight="700">~/.expertwiki</text>

  <g>
    <rect x="78" y="204" width="314" height="92" rx="16" fill="#111A2B" stroke="#334155"/>
    <text x="104" y="240" fill="#E5E7EB" font-family="Inter, ui-sans-serif, system-ui, -apple-system, BlinkMacSystemFont, Segoe UI, sans-serif" font-size="20" font-weight="700">1. Preserve sources</text>
    <text x="104" y="270" fill="#9CA3AF" font-family="Inter, ui-sans-serif, system-ui, -apple-system, BlinkMacSystemFont, Segoe UI, sans-serif" font-size="15">Local files copied into raw/sources/</text>
  </g>

  <g>
    <rect x="443" y="204" width="314" height="92" rx="16" fill="#111A2B" stroke="#3B82F6"/>
    <text x="469" y="240" fill="#E5E7EB" font-family="Inter, ui-sans-serif, system-ui, -apple-system, BlinkMacSystemFont, Segoe UI, sans-serif" font-size="20" font-weight="700">2. Write OKF cards</text>
    <text x="469" y="270" fill="#9CA3AF" font-family="Inter, ui-sans-serif, system-ui, -apple-system, BlinkMacSystemFont, Segoe UI, sans-serif" font-size="15">Facts, feedback, rules, risks, confidence</text>
  </g>

  <g>
    <rect x="808" y="204" width="314" height="92" rx="16" fill="#111A2B" stroke="#334155"/>
    <text x="834" y="240" fill="#E5E7EB" font-family="Inter, ui-sans-serif, system-ui, -apple-system, BlinkMacSystemFont, Segoe UI, sans-serif" font-size="20" font-weight="700">3. Serve agents</text>
    <text x="834" y="270" fill="#9CA3AF" font-family="Inter, ui-sans-serif, system-ui, -apple-system, BlinkMacSystemFont, Segoe UI, sans-serif" font-size="15">CLI, query, audit, graph, llms.txt, API</text>
  </g>

  <circle cx="410" cy="250" r="5" fill="#60A5FA"/>
  <path d="M420 250H430" stroke="#60A5FA" stroke-width="3" stroke-linecap="round"/>
  <circle cx="775" cy="250" r="5" fill="#60A5FA"/>
  <path d="M785 250H795" stroke="#60A5FA" stroke-width="3" stroke-linecap="round"/>
</svg>
